<?xml version="1.0" encoding="utf-8"?>
<!-- Generator: Adobe Illustrator 25.0.1, SVG Export Plug-In . SVG Version: 6.00 Build 0)  -->
<svg version="1.1" id="Objects" xmlns="http://www.w3.org/2000/svg" xmlns:xlink="http://www.w3.org/1999/xlink" x="0px" y="0px"
	 viewBox="0 0 155 155" style="enable-background:new 0 0 155 155;" xml:space="preserve">
<style type="text/css">
	.st0{fill:#FF0000;}
	.st1{clip-path:url(#SVGID_2_);}
	.st2{fill:#F4D0AE;}
	.st3{opacity:0.6;fill:#D3BCA5;}
	.st4{fill:#94BBD3;}
	.st5{fill:#161616;}
</style>
<g>
	<circle class="st0" cx="77.5" cy="77.5" r="77"/>
	<g>
		<defs>
			<circle id="SVGID_1_" cx="77.5" cy="77.5" r="77"/>
		</defs>
		<use xlink:href="#SVGID_1_"  style="overflow:visible;fill:#FF0000;"/>
		<clipPath id="SVGID_2_">
			<use xlink:href="#SVGID_1_"  style="overflow:visible;"/>
		</clipPath>
		<g class="st1">
			<g>
				<g>
					<path class="st2" d="M85.58,42.84c0.37,0.89,0.76,3.14,0.83,3.46c0.44,1.89,0.98,4.38,1.3,6.9c0,0.01,0,0.01,0,0.02
						c2.17,0.83,5.83,2.27,7.7,3.04c0,0-0.23-7.55-0.8-22.88c-0.51-13.68-0.22-18.02-4.02-18.45c-5.88-0.67-5.33,5.54-5.33,5.54
						C85.28,24.16,85.6,38.94,85.58,42.84z"/>
					<path class="st3" d="M79.58,68.31c-0.01,0.08-0.03,0.16-0.04,0.24c0.03-0.05,0.06-0.09,0.09-0.13
						C79.61,68.38,79.59,68.34,79.58,68.31z"/>
					<path class="st2" d="M79.75,66.1c0,0.1,0,0.2,0,0.3c0.3,1.15,0.63,2.26,1.29,3.14c0.6,0.8,1.5,1.26,2.75,1.39
						c0.36,0.04,2.17,0.16,2.58-1.07c0.41-1.26,0.69-2.61,0.86-4.14c-2.66-0.95-5.33-2.86-6.86-6.03c-0.82-1.71-0.96-3.28-0.41-4.69
						c0.9-2.3,3.29-3.28,3.39-3.32c0.08-0.03,0.18-0.03,0.26,0c0.03,0.01,1.45,0.54,3.35,1.27c-0.32-2.34-0.8-4.57-1.24-6.47
						c-0.08-0.33-0.15-0.65-0.22-0.98c-0.18-0.81-0.36-1.64-0.6-2.43c-0.01-0.05-0.03-0.09-0.05-0.14c-1.99-3.06-8.03-0.99-7.8,1.59
						C77.72,50.62,79.75,63.3,79.75,66.1z"/>
					<path class="st2" d="M71.11,58.82c0.06,0.35,0.14,0.77,0.23,1.27c0.27,1.44,0.6,3.21,0.71,4.87c0.01,0.03,0.02,0.05,0.03,0.08
						c0.04,0.27,0.07,0.58,0.1,0.92c0.14,1.57,0.34,3.72,2.37,4.4c1.47,0.49,2.53,0.49,3.24-0.02c0.84-0.6,1.24-1.99,1.24-4.24
						c0-2.66-1.52-14.6-2.65-21.12c-0.94-2-2.77-2-2.77-2c-5.8,0-5.82,4.56-5.99,5.95C69.06,52.46,70.83,57.03,71.11,58.82z"/>
					<path class="st2" d="M96.94,58.07c-0.63-0.49-1.54-1.05-2.84-1.58c-3.52-1.44-9.61-3.74-10.6-4.11
						c-0.47,0.22-2.2,1.13-2.87,2.87c-0.47,1.21-0.34,2.6,0.39,4.11c2.53,5.28,8.45,6.85,11.65,6.25c0.19-0.04,0.38,0.09,0.42,0.29
						c0.04,0.19-0.09,0.38-0.29,0.42c-0.45,0.08-0.96,0.13-1.5,0.13c-1.03,0-2.19-0.16-3.38-0.51c-0.18,1.52-0.47,2.88-0.88,4.14
						c-0.39,1.18-1.61,1.59-2.79,1.59c-0.18,0-0.37-0.01-0.54-0.03c-1.45-0.15-2.51-0.7-3.24-1.67c-0.19-0.25-0.35-0.51-0.49-0.78
						c-1.45,2.33-6.78,11.74-2.67,17.69c0.11,0.16,0.07,0.39-0.09,0.5c-0.06,0.04-0.13,0.06-0.2,0.06c-0.11,0-0.23-0.05-0.3-0.15
						c-2.07-3-2.2-7.25-0.37-12.3c0.55-1.53,1.21-2.92,1.8-4.03c-0.47,0.32-1.04,0.48-1.7,0.48c-0.61,0-1.32-0.13-2.11-0.4
						c-1.51-0.5-2.18-1.64-2.51-2.82c-0.17,0.56-0.43,1.04-0.8,1.37c-0.41,0.37-0.92,0.55-1.53,0.55c-0.35,0-0.72-0.06-1.13-0.18
						c-5.34-1.55-6.43-12.34-6.48-12.8c-0.02-0.2,0.13-0.37,0.32-0.39c0.2-0.02,0.37,0.13,0.39,0.32
						c0.01,0.11,1.09,10.76,5.96,12.18c0.89,0.26,1.53,0.19,1.98-0.22c1.51-1.37,0.6-6.23,0.11-8.84c-0.09-0.5-0.17-0.93-0.23-1.29
						c-0.28-1.75-2.12-6.49-3.57-10.04c-1.12-0.84-2.89-1-4.75,0.39c-2.87,2.15-2.24,7.23-2.23,11.06
						c0.01,3.83-2.16,13.14-1.53,18.3c0.43,3.53,2.1,6.75,3.11,8.44c0.1,0.16,0.19,0.31,0.27,0.45c1.3,0.85,4,2.11,7.96,1.49
						c0.2-0.03,0.38,0.1,0.41,0.3c0.03,0.2-0.1,0.38-0.3,0.41c-0.79,0.12-1.53,0.18-2.22,0.18c-2.33,0-4.11-0.61-5.33-1.23V98.9
						l27.92,0.02v-5.4c-0.81,0.27-1.65,0.36-2.43,0.36c-2.08,0-3.81-0.68-3.94-0.73c-0.18-0.07-0.27-0.28-0.2-0.47
						c0.07-0.18,0.28-0.27,0.47-0.2c0.04,0.02,3.83,1.5,6.75-0.02c0.55-0.72,1.49-2.04,3-4.36c2.79-4.3,4.8-22.33,5.13-25.01
						C99.29,60.15,97.92,58.71,96.94,58.07z"/>
				</g>
			</g>
			<rect x="60.85" y="96.54" class="st4" width="30.7" height="9.45"/>
			<rect x="58.2" y="100.33" class="st5" width="36" height="85.1"/>
		</g>
	</g>
</g>
</svg>
