<?xml version="1.0" encoding="utf-8"?>
<!-- Generator: Adobe Illustrator 25.0.0, SVG Export Plug-In . SVG Version: 6.00 Build 0)  -->
<svg version="1.1" id="Layer_1" xmlns="http://www.w3.org/2000/svg" xmlns:xlink="http://www.w3.org/1999/xlink" x="0px" y="0px"
	 viewBox="0 0 304 38" style="enable-background:new 0 0 304 38;" xml:space="preserve">
<style type="text/css">
	.st0{fill:#FF0000;}
</style>
<g>
	<path class="st0" d="M14.1,37.1H1V7h11.7c2,0,3.8,0.2,5.3,0.7c1.5,0.5,2.6,1.1,3.3,2c1.3,1.6,2,3.3,2,5.3c0,2.4-0.8,4.1-2.3,5.3
		c-0.5,0.4-0.9,0.7-1.1,0.8c-0.2,0.1-0.6,0.3-1.1,0.5c1.9,0.4,3.4,1.2,4.5,2.5c1.1,1.3,1.7,2.9,1.7,4.8c0,2.1-0.7,3.9-2.2,5.6
		C21.2,36.2,18.3,37.1,14.1,37.1 M7.7,19.2h3.2c1.9,0,3.3-0.2,4.2-0.6c0.9-0.4,1.4-1.3,1.4-2.6c0-1.3-0.4-2.2-1.2-2.6
		c-0.8-0.4-2.2-0.6-4.2-0.6H7.7V19.2z M7.7,31.5h4.6c1.9,0,3.4-0.2,4.3-0.7c1-0.5,1.4-1.4,1.4-2.8c0-1.4-0.5-2.3-1.5-2.8
		c-1-0.4-2.6-0.7-4.9-0.7h-4V31.5z"/>
	<rect x="29.3" y="7" class="st0" width="6.7" height="30.1"/>
	<polygon class="st0" points="95.4,7 95.4,13 80.5,13 80.5,19.2 93.9,19.2 93.9,25 80.5,25 80.5,31.2 95.9,31.2 95.9,37.1 
		73.8,37.1 73.8,7 	"/>
	<polygon class="st0" points="49.9,37.1 49.9,31.4 44.8,37.1 	"/>
	<path class="st0" d="M58.6,21.7l-4.5,5.1l7.7,10.4h7.8c-1.4-1.9-3.5-4.8-6.2-8.8C61.3,25.5,59.7,23.2,58.6,21.7"/>
	<polygon class="st0" points="66.6,1.1 49.9,19.4 49.9,7 43.2,7 43.2,35.2 43.2,37.1 49.9,29.5 53.2,25.7 57.7,20.5 62,15.7 69.6,7 
		74.8,1.1 	"/>
	<path class="st0" d="M119,36.6h-13V6.8h11.6c2,0,3.8,0.2,5.2,0.7c1.5,0.5,2.5,1.1,3.3,2c1.4,1.5,2,3.3,2,5.2c0,2.3-0.7,4.1-2.2,5.2
		c-0.5,0.4-0.9,0.6-1.1,0.7c-0.2,0.1-0.6,0.3-1.1,0.5c1.8,0.4,3.3,1.2,4.4,2.5c1.1,1.3,1.6,2.8,1.6,4.7c0,2.1-0.7,3.9-2.1,5.5
		C125.9,35.7,123.1,36.6,119,36.6 M111,19.2h6.4c3.6,0,5.5-1.2,5.5-3.7c0-1.4-0.4-2.4-1.3-3.1c-0.9-0.6-2.2-0.9-4.1-0.9H111V19.2z
		 M111,31.9h7.9c1.8,0,3.3-0.3,4.2-0.9c1-0.6,1.5-1.7,1.5-3.3c0-2.6-2.1-4-6.3-4H111V31.9z"/>
	<path class="st0" d="M139.9,29.8l-3,6.8h-5.4l13.1-29.8h5.4l13.1,29.8h-5.4l-3-6.8H139.9z M152.8,25.2l-5.4-12.3L142,25.2H152.8z"
		/>
	<polygon class="st0" points="182.5,11.4 165.7,11.4 165.7,6.8 189.5,6.8 189.5,10.7 172.2,31.8 172.2,31.9 189.7,31.9 189.7,36.6 
		165.2,36.6 165.2,32.7 182.5,11.5 	"/>
	<path class="st0" d="M200.3,29.8l-3,6.8h-5.4L205,6.8h5.4l13.1,29.8h-5.4l-3-6.8H200.3z M213.1,25.2l-5.4-12.3l-5.4,12.3H213.1z"/>
	<path class="st0" d="M231.9,29.8l-3,6.8h-5.4l13.1-29.8h5.4l13.1,29.8h-5.4l-3-6.8H231.9z M244.7,25.2l-5.4-12.3l-5.4,12.3H244.7z"
		/>
	<path class="st0" d="M283,16.5c0,4.9-2.1,8-6.4,9.3l7.8,10.8H278l-7.1-10h-6.6v10h-5V6.8h11.1c4.5,0,7.8,0.8,9.8,2.3
		C282.1,10.6,283,13.1,283,16.5 M276.3,20.7c1-0.9,1.5-2.3,1.5-4.2c0-1.9-0.5-3.3-1.6-4c-1-0.7-2.9-1.1-5.6-1.1h-6.4V22h6.3
		C273.4,22,275.3,21.6,276.3,20.7"/>
	<polygon class="st0" points="287.1,3.7 284.2,3.7 284.2,2 292,2 292,3.7 289.1,3.7 289.1,10.9 287.1,10.9 	"/>
	<polygon class="st0" points="301.2,10.9 301.1,5.6 298.5,10 297.6,10 295,5.7 295,10.9 293.1,10.9 293.1,2 294.8,2 298.1,7.6 
		301.4,2 303.1,2 303.1,10.9 	"/>
</g>
</svg>
